<svg width="32" height="32" viewBox="0 0 32 32" fill="none" xmlns="http://www.w3.org/2000/svg">
<path d="M7 28.0001C6.73478 28.0001 6.48043 27.8947 6.29289 27.7072C6.10536 27.5196 6 27.2653 6 27.0001V5.00007C6.00003 4.8263 6.04534 4.65554 6.13147 4.50461C6.21759 4.35369 6.34156 4.22781 6.49115 4.13939C6.64074 4.05096 6.8108 4.00305 6.98455 4.00036C7.1583 3.99768 7.32975 4.04032 7.482 4.12407L27.482 15.1241C27.6388 15.2104 27.7695 15.3372 27.8606 15.4913C27.9517 15.6454 27.9997 15.8211 27.9997 16.0001C27.9997 16.1791 27.9517 16.3548 27.8606 16.5088C27.7695 16.6629 27.6388 16.7897 27.482 16.8761L7.482 27.8761C7.33435 27.9574 7.16855 28 7 28.0001Z" fill="black"/>
</svg>
